<svg width="380" height="290" viewBox="0 0 380 290" fill="none" xmlns="http://www.w3.org/2000/svg">
<path d="M345.627 165.759H207.248V277.787H345.627V165.759Z" fill="#FFAFA4"/>
<path fill-rule="evenodd" clip-rule="evenodd" d="M247.211 217.141H225.543V264.193H247.211V217.141ZM332.207 219.373H310.54V264.193H332.207V219.373ZM303.877 206.82H282.207V264.193H303.877V206.82ZM275.544 190.754H253.874V264.193H275.544V190.754ZM326.111 211.993H316.355V217.322H326.111V211.993ZM240.838 209.921H231.083V215.248H240.838V209.921ZM297.92 199.947H288.164V205.276H297.92V199.947ZM269.236 183.512H259.483V188.842H269.236V183.512Z" fill="#FFF1E2"/>
<path fill-rule="evenodd" clip-rule="evenodd" d="M288.049 255.7L330.628 209.661C331.236 209.004 332.256 208.973 332.904 209.591C333.55 210.211 333.581 211.249 332.974 211.906L289.07 259.378C288.741 259.732 288.275 259.92 287.8 259.891C287.322 259.861 286.88 259.617 286.599 259.224L256.091 216.93L223.52 260.98C222.984 261.703 221.976 261.85 221.265 261.305C220.555 260.763 220.41 259.734 220.946 259.012L254.818 213.198C255.126 212.783 255.606 212.541 256.115 212.543C256.624 212.546 257.102 212.795 257.404 213.213L288.049 255.7Z" fill="#DC5D3C"/>
<path fill-rule="evenodd" clip-rule="evenodd" d="M267.181 60.9342C267.013 60.4605 266.921 59.9505 266.921 59.4192C266.921 56.9291 268.942 54.9075 271.433 54.9075C273.922 54.9075 275.944 56.9291 275.944 59.4192C275.944 61.9091 273.922 63.9309 271.433 63.9309C270.827 63.9309 270.25 63.8114 269.721 63.5951L224.568 116.393C224.857 116.988 225.02 117.656 225.02 118.362C225.02 120.852 222.997 122.873 220.508 122.873C218.018 122.873 215.997 120.852 215.997 118.362C215.997 118.238 216.001 118.116 216.012 117.996L211.711 115.011C210.946 115.605 209.987 115.958 208.945 115.958C208.44 115.958 207.955 115.875 207.503 115.723L161.888 175.837C162.028 176.273 162.103 176.736 162.103 177.217C162.103 179.706 160.082 181.729 157.591 181.729C155.1 181.729 153.08 179.706 153.08 177.217C153.08 176.974 153.098 176.736 153.135 176.505L125.018 148.325C124.39 148.656 123.675 148.844 122.915 148.844C122.461 148.844 122.022 148.777 121.608 148.65L72.6445 224.877C73.044 225.55 73.2735 226.335 73.2735 227.175C73.2735 229.664 71.2519 231.687 68.7618 231.687C66.2717 231.687 64.2501 229.664 64.2501 227.175C64.2501 224.685 66.2717 222.662 68.7618 222.662C69.0689 222.662 69.3687 222.693 69.6588 222.752L118.817 146.222C118.552 145.647 118.404 145.007 118.404 144.333C118.404 141.842 120.426 139.82 122.915 139.82C125.406 139.82 127.428 141.842 127.428 144.333C127.428 144.708 127.381 145.074 127.295 145.424L155.199 173.392C155.893 172.957 156.713 172.706 157.591 172.706C158.23 172.706 158.838 172.838 159.388 173.078L204.8 113.23C204.564 112.683 204.432 112.08 204.432 111.447C204.432 108.957 206.455 106.935 208.945 106.935C211.435 106.935 213.457 108.957 213.457 111.447C213.457 111.552 213.453 111.656 213.446 111.76L217.782 114.768C218.539 114.192 219.484 113.85 220.508 113.85C220.948 113.85 221.372 113.913 221.773 114.03L267.181 60.9342Z" fill="#FFAFA4"/>
<path d="M176.795 22.5665H33.4197V130.872H176.795V22.5665Z" fill="#FFF1E2"/>
<path fill-rule="evenodd" clip-rule="evenodd" d="M62.1878 40.8697H52.4321V120.323H62.1878V40.8697ZM81.5447 33.7779H71.7893V120.281H81.5447V33.7779ZM100.902 51.9314H91.1465V120.235H100.902V51.9314ZM120.26 40.6624H110.503V120.185H120.26V40.6624ZM139.617 62.7576H129.862V120.131H139.617V62.7576ZM158.972 78.794H149.217V120.072H158.972V78.794Z" fill="#FFAFA4" fill-opacity="0.64"/>
<path fill-rule="evenodd" clip-rule="evenodd" d="M197.401 243.952H177.909V218.028H164.569L187.655 184.55L210.741 218.028H197.401V243.952Z" fill="#E5734E"/>
<path fill-rule="evenodd" clip-rule="evenodd" d="M303.04 27.6057L322.532 27.6057V53.5303H335.872L312.786 87.0078L289.7 53.5303H303.04V27.6057Z" fill="#FFB000"/>
<path d="M254.512 181.031C272.453 181.031 286.997 166.237 286.997 147.987C286.997 129.737 272.453 114.943 254.512 114.943C236.57 114.943 222.026 129.737 222.026 147.987C222.026 166.237 236.57 181.031 254.512 181.031Z" fill="#FFCD80"/>
<path fill-rule="evenodd" clip-rule="evenodd" d="M246.926 125.446L245.731 125.88L245.14 124.193L247.224 123.437C247.718 123.258 248.249 123.491 248.412 123.957L249.412 126.81C251.264 126.226 253.112 125.868 254.953 125.737C257.306 125.568 259.65 125.768 261.984 126.336C262.248 126.399 262.462 126.573 262.574 126.808C262.684 127.045 262.681 127.32 262.562 127.564L259.932 132.976C259.733 133.383 259.265 133.605 258.823 133.502C256.53 132.966 254.182 132.985 251.777 133.556L255.11 143.064C264.323 141.669 269.827 144.071 271.757 149.953C272.819 153.143 272.493 156.224 270.789 159.18C269.257 161.95 266.738 164.289 263.211 166.176L264.93 171.079C265.093 171.544 264.826 172.065 264.333 172.244L262.286 172.986L261.695 171.301L262.852 170.881L261.171 166.085C261.021 165.658 261.232 165.177 261.663 164.964C265.173 163.22 267.674 161.039 269.149 158.375C270.594 155.868 270.862 153.268 269.965 150.57C268.229 145.278 263.051 143.524 254.583 144.967C254.136 145.042 253.711 144.804 253.57 144.4L249.67 133.276C249.589 133.044 249.614 132.785 249.737 132.559C249.86 132.336 250.072 132.166 250.323 132.093C253.14 131.256 255.891 131.087 258.57 131.584L260.383 127.857C258.597 127.518 256.806 127.409 255.007 127.54C253.042 127.679 251.074 128.1 249.096 128.8C248.606 128.973 248.08 128.739 247.918 128.276L246.926 125.446ZM260.82 159.354C261.985 158.513 262.749 157.647 263.069 156.728C263.263 156.14 263.342 155.528 263.306 154.895L265.183 154.72C265.228 155.578 265.118 156.406 264.851 157.218C264.325 158.723 262.994 160.181 260.784 161.521C260.539 161.668 260.244 161.706 259.978 161.622C259.714 161.537 259.507 161.339 259.418 161.085L257.328 155.123L259.11 154.477L260.82 159.354ZM242.707 139.036C242.752 138.16 242.938 137.378 243.253 136.688C243.26 136.671 243.27 136.654 243.278 136.637C244.035 135.214 245.153 134.147 246.627 133.435C246.868 133.319 247.148 133.305 247.392 133.395C247.637 133.487 247.824 133.677 247.908 133.915L249.619 138.798L247.838 139.444L246.488 135.594C245.852 136.065 245.342 136.658 244.956 137.375C244.734 137.87 244.614 138.431 244.581 139.059C244.582 139.075 244.579 139.092 244.577 139.109C244.506 139.773 244.623 140.504 244.903 141.303L243.121 141.949C242.75 140.891 242.619 139.919 242.707 139.036Z" fill="#FDA31F"/>
<path fill-rule="evenodd" clip-rule="evenodd" d="M245.692 144.999C244.482 144.369 243.619 143.358 243.124 141.946L244.906 141.3C245.245 142.268 245.818 142.975 246.649 143.405L246.679 143.42C247.343 143.797 248.256 143.953 249.415 143.931L247.841 139.442L249.623 138.795L251.596 144.424C251.687 144.686 251.645 144.979 251.482 145.219C251.32 145.457 251.054 145.616 250.763 145.646C248.517 145.88 246.832 145.636 245.692 144.999Z" fill="#FDA31F"/>
<path fill-rule="evenodd" clip-rule="evenodd" d="M257.696 150.439L259.111 154.475L257.329 155.121L255.555 150.062C255.469 149.815 255.501 149.539 255.643 149.307C255.787 149.074 256.025 148.908 256.296 148.855C258.919 148.336 260.845 148.493 262.088 149.186L262.116 149.204C263.353 149.958 264.222 151.033 264.713 152.435C264.988 153.219 265.143 153.982 265.183 154.719L263.306 154.893C263.275 154.307 263.149 153.703 262.931 153.081C262.578 152.073 261.962 151.297 261.078 150.753C260.298 150.324 259.17 150.242 257.696 150.439Z" fill="#FDA31F"/>
<path fill-rule="evenodd" clip-rule="evenodd" d="M252.025 151.392C243.137 152.651 237.875 150.277 236.094 144.59C234.978 141.178 235.197 138.114 236.689 135.399C238.055 132.915 240.516 130.708 244.112 128.819L243.084 125.886C242.921 125.42 243.187 124.898 243.678 124.72L245.138 124.19L245.729 125.877L245.162 126.083L246.154 128.913C246.304 129.342 246.092 129.825 245.658 130.038C242.092 131.792 239.638 133.824 238.339 136.186C237.076 138.487 236.943 141.085 237.891 143.989C239.486 149.083 244.429 150.805 252.562 149.496C253.005 149.425 253.427 149.662 253.567 150.062L257.654 161.722C257.738 161.96 257.709 162.224 257.582 162.451C257.452 162.679 257.231 162.847 256.973 162.916C254.673 163.527 252.619 163.739 250.816 163.566C249.254 163.483 247.787 163.208 246.411 162.742L243.952 166.702C245.988 167.211 248.142 167.482 250.408 167.519C253.044 167.538 255.651 167.097 258.231 166.198C258.723 166.028 259.245 166.261 259.407 166.722L261.088 171.518L261.694 171.299L262.285 172.984L260.787 173.527C260.295 173.705 259.765 173.473 259.602 173.008L257.911 168.185C255.4 168.966 252.866 169.344 250.302 169.325C247.428 169.279 244.736 168.878 242.217 168.127C241.953 168.048 241.743 167.855 241.649 167.602C241.553 167.351 241.584 167.065 241.732 166.826L245.236 161.186C245.483 160.785 245.998 160.613 246.43 160.787C247.841 161.354 249.374 161.678 251.023 161.764L251.067 161.767C252.403 161.898 253.894 161.78 255.54 161.42L252.025 151.392Z" fill="#FDA31F"/>
<path fill-rule="evenodd" clip-rule="evenodd" d="M261.365 185.168C258.952 185.674 256.45 185.94 253.89 185.94C251.768 185.94 250.049 184.189 250.049 182.032C250.049 179.876 251.768 178.125 253.89 178.125C270.023 178.125 283.121 164.802 283.121 148.392C283.121 131.981 270.023 118.658 253.89 118.658C251.768 118.658 250.049 116.907 250.049 114.75C250.049 112.594 251.768 110.842 253.89 110.842C274.264 110.842 290.805 127.667 290.805 148.392C290.805 163.751 281.717 176.969 268.717 182.782L292.8 240.568C293.629 242.554 292.716 244.85 290.764 245.69C288.812 246.533 286.555 245.604 285.727 243.619L261.365 185.168Z" fill="#DC5D3C"/>
<path fill-rule="evenodd" clip-rule="evenodd" d="M253.89 178.124C237.757 178.124 224.659 164.801 224.659 148.391C224.659 131.981 237.757 118.658 253.89 118.658C256.01 118.658 257.732 116.907 257.732 114.75C257.732 112.593 256.01 110.842 253.89 110.842C233.517 110.842 216.975 127.667 216.975 148.391C216.975 169.114 233.517 185.939 253.89 185.939C256.01 185.939 257.732 184.188 257.732 182.031C257.732 179.875 256.01 178.124 253.89 178.124Z" fill="#DC5D3C"/>
<path fill-rule="evenodd" clip-rule="evenodd" d="M305.621 197.901C305.621 197.901 303.554 190.002 304.238 179.932C305.203 165.769 314.114 153.445 327.118 148.287C340.12 143.13 354.882 146.065 365.017 155.824C367.358 158.088 369.492 160.748 371.288 163.876C380.115 179.263 382.977 196.225 375.543 212.985C375.543 212.985 380.333 244.987 373.433 268.055C369.951 279.641 360.073 288.043 348.248 289.479C347.849 289.533 347.448 289.579 347.042 289.628C336.242 290.94 325.648 285.906 319.703 276.642C308.128 258.603 290.323 230.858 290.323 230.858C290.323 230.858 280.248 231.749 276.356 232.094C274.964 232.221 273.717 231.222 273.513 229.815C273.401 228.972 273.66 228.044 274.844 227.258C274.844 227.258 273.593 227.248 272.613 227.006C271.067 226.628 270.447 225.282 270.38 223.841C270.318 222.485 270.711 220.92 272.524 220.002C270.241 220.439 268.027 218.956 267.523 216.651C267.501 216.558 267.482 216.47 267.465 216.387C267.28 215.549 267.398 214.672 267.794 213.915C268.169 213.195 268.814 212.406 269.919 211.93C269.919 211.93 268.843 211.59 267.681 211.224C266.003 210.694 264.857 209.116 264.857 207.328V207.326C264.857 205.741 265.799 204.309 267.242 203.704C270.375 202.382 275.494 200.228 275.494 200.228C275.494 200.228 268.901 191.675 271.643 189.162C272.13 188.715 273.218 188.456 276.416 191.226C277.624 192.271 282.313 193.607 288.246 192.779C288.246 192.779 296.009 192.73 305.621 197.901ZM312.757 105.864C322.844 105.864 331.034 114.195 331.034 124.456C331.034 134.717 322.844 143.048 312.757 143.048C302.668 143.048 294.477 134.717 294.477 124.456C294.477 114.195 302.668 105.864 312.757 105.864Z" fill="#A8CFCC"/>
<path fill-rule="evenodd" clip-rule="evenodd" d="M289.703 230.914L293.708 230.454C294.234 230.393 294.709 230.779 294.769 231.317C294.829 231.852 294.45 232.335 293.922 232.396L291.487 232.675L290.322 230.857L289.703 230.914ZM270.869 225.702L282.439 224.615C282.968 224.564 283.436 224.959 283.484 225.497C283.534 226.034 283.145 226.51 282.617 226.559L274.787 227.294C274.804 227.282 274.823 227.27 274.842 227.257C274.842 227.257 273.591 227.248 272.612 227.006C271.783 226.803 271.222 226.324 270.869 225.702ZM268.794 218.907C268.88 218.856 268.979 218.817 269.082 218.792L279.801 216.443C280.317 216.328 280.828 216.665 280.941 217.193C281.052 217.718 280.723 218.238 280.204 218.353L272.403 220.065C272.441 220.043 272.482 220.021 272.523 220.001C271.13 220.267 269.764 219.82 268.794 218.907ZM266.856 210.857L278.29 207.274C278.797 207.115 279.335 207.404 279.491 207.919C279.647 208.434 279.361 208.981 278.855 209.14L269.824 211.971C269.855 211.956 269.887 211.941 269.918 211.929C269.918 211.929 268.842 211.59 267.68 211.223C267.389 211.131 267.113 211.008 266.856 210.857ZM274.333 198.599L278.334 196.916C278.823 196.709 279.385 196.945 279.589 197.444C279.791 197.944 279.558 198.516 279.068 198.721L275.491 200.226C275.459 200.184 274.974 199.551 274.333 198.599Z" fill="#82B5B2"/>
<path fill-rule="evenodd" clip-rule="evenodd" d="M305.529 197.534C305.137 195.868 303.637 188.729 304.234 179.934C305.2 165.771 314.11 153.447 327.114 148.289C340.116 143.132 354.878 146.067 365.013 155.826C367.355 158.09 369.489 160.75 371.285 163.878C380.112 179.265 382.974 196.227 375.54 212.987C375.54 212.987 380.33 244.989 373.429 268.057C369.948 279.643 360.07 288.045 348.244 289.481C347.846 289.535 347.445 289.581 347.039 289.63C336.239 290.941 325.645 285.908 319.7 276.644L311.774 264.293L338.721 232.259C324.634 209.953 309.291 199.803 305.529 197.534Z" fill="url(#paint0_linear_3_1213)"/>
<path fill-rule="evenodd" clip-rule="evenodd" d="M338.62 232.097C338.668 232.144 338.714 232.2 338.752 232.258L356.158 258.983C356.451 259.435 356.331 260.04 355.889 260.338C355.447 260.636 354.852 260.512 354.559 260.062L337.441 233.783L338.724 232.258L338.62 232.097ZM375.71 214.222L375.753 214.569L375.7 214.681C375.7 214.681 371.856 192.912 366.341 176.27C366.209 175.926 366.363 175.537 366.689 175.381C367.016 175.222 367.407 175.349 367.587 175.669C370.524 181.47 374.55 190.152 379.014 201.837C378.949 202.183 378.882 202.53 378.81 202.875L378.807 202.887L378.774 203.048L378.771 203.063L378.735 203.226L378.733 203.236C378.661 203.58 378.582 203.925 378.5 204.267L378.498 204.279L378.459 204.435L378.455 204.46L378.419 204.611L378.409 204.64L378.373 204.789L378.366 204.816L378.327 204.97L378.325 204.98C378.267 205.205 378.207 205.429 378.147 205.656L378.142 205.671L378.104 205.815L378.092 205.857L378.056 205.989L378.042 206.04L378.005 206.169L377.991 206.223L377.955 206.35L377.941 206.404L377.902 206.533L377.89 206.577L377.849 206.714C377.833 206.773 377.816 206.831 377.797 206.89L377.751 207.041L377.744 207.066L377.708 207.188L377.689 207.251L377.653 207.364L377.631 207.437L377.597 207.544L377.573 207.622L377.54 207.728L377.513 207.808L377.48 207.913L377.453 207.994L377.42 208.096L377.393 208.179L377.36 208.282L377.326 208.38L377.302 208.458L377.271 208.546L377.24 208.641L377.208 208.734L377.175 208.829L377.144 208.919L377.11 209.015L377.079 209.105L377.045 209.203L377.014 209.291L376.978 209.391L376.947 209.476L376.911 209.581L376.882 209.662L376.836 209.784L376.812 209.847L376.745 210.031L376.721 210.092L376.675 210.216L376.646 210.292L376.606 210.402L376.574 210.482L376.534 210.59L376.502 210.671L376.462 210.778L376.43 210.859L376.387 210.969L376.356 211.044L376.308 211.164L376.281 211.23L376.219 211.384L376.207 211.415L376.13 211.601L376.109 211.657L376.053 211.787L376.025 211.86L375.977 211.975L375.945 212.05L375.897 212.16L375.866 212.239L375.818 212.351L375.784 212.427L375.736 212.541L375.705 212.612L375.65 212.739L375.624 212.798L375.542 212.986L375.556 213.084L375.559 213.115L375.573 213.206L375.578 213.25L375.597 213.379L375.604 213.428L375.626 213.601L375.633 213.653L375.664 213.872L375.669 213.916L375.705 214.195L375.71 214.222ZM314.628 204.184C314.628 204.184 313.714 196.991 312.482 175.852C312.453 175.381 312.772 175.234 312.948 175.195C313.26 175.125 313.498 175.33 313.526 175.51L318.677 207.774C317.253 206.443 315.899 205.249 314.628 204.184Z" fill="#28625E"/>
<path fill-rule="evenodd" clip-rule="evenodd" d="M298.518 112.803C301.87 108.573 307.004 105.864 312.757 105.864C322.844 105.864 331.034 114.195 331.034 124.456C331.034 130.262 328.412 135.45 324.309 138.86L317.929 132.414C318.608 132.365 319.309 132.181 319.989 131.853C322.392 130.689 323.01 127.628 322.085 125.653C321.158 123.677 318.457 123.018 316.056 124.182C314.498 124.937 314.025 126.787 313.732 128.173L298.518 112.803Z" fill="black"/>
<path d="M137.523 164.162C155.464 164.162 170.008 149.368 170.008 131.118C170.008 112.869 155.464 98.0746 137.523 98.0746C119.581 98.0746 105.037 112.869 105.037 131.118C105.037 149.368 119.581 164.162 137.523 164.162Z" fill="#A8CFCC"/>
<path fill-rule="evenodd" clip-rule="evenodd" d="M105.857 123.696C106.093 123.589 106.379 123.527 106.726 123.589C107.41 123.711 107.896 124.307 107.916 124.987C108.144 125.397 108.757 126.469 109.489 127.48C111.217 129.868 114.132 133.298 118.169 136.799C120.017 128.753 123.557 122.044 127.47 116.664C121.691 112.128 118.512 107.95 117.866 107.152C117.359 106.528 117.448 105.604 118.061 105.089C118.675 104.575 119.583 104.664 120.089 105.288C120.707 106.049 123.734 110.026 129.242 114.344C136.748 104.981 144.878 100.32 144.878 100.32C145.57 99.9225 146.449 100.172 146.84 100.876C147.231 101.581 146.987 102.475 146.293 102.873C146.293 102.873 138.645 107.259 131.555 116.066C137.046 119.95 144.513 123.804 154.007 125.593C155.028 118.548 154.656 112.003 153.938 107.151C153.82 106.351 154.363 105.604 155.148 105.484C155.935 105.363 156.67 105.915 156.788 106.715C157.542 111.81 157.919 118.668 156.848 126.057C160.543 126.568 164.524 126.762 168.791 126.534C169.144 126.515 169.47 126.626 169.732 126.826C169.823 127.537 169.891 128.254 169.939 128.978C169.691 129.257 169.341 129.44 168.942 129.461C164.447 129.701 160.253 129.494 156.356 128.951C154.961 136.099 152.127 143.582 146.927 150.338C152.156 151.11 157.876 151.157 164.066 150.155C163.259 151.318 162.378 152.427 161.434 153.472C155.424 154.141 149.861 153.875 144.758 152.954C141.27 156.867 136.892 160.469 131.427 163.534C131.408 163.547 131.387 163.556 131.365 163.566C130.774 163.451 130.191 163.32 129.612 163.173C129.559 163.107 129.511 163.036 129.471 162.958C129.086 162.25 129.341 161.358 130.037 160.968C134.597 158.408 138.355 155.453 141.438 152.248C132.885 150.158 125.756 146.266 120.145 142.094C119.516 146.84 119.518 152.019 120.402 157.631C120.478 158.125 120.303 158.601 119.972 158.923C119.083 158.342 118.226 157.719 117.4 157.055C116.536 150.878 116.68 145.207 117.53 140.045C110.719 134.423 106.628 128.742 105.478 126.602C105.437 126.527 105.4 126.454 105.365 126.383C105.493 125.475 105.658 124.578 105.857 123.696ZM129.778 118.39C125.852 123.794 122.322 130.616 120.678 138.863C126.503 143.405 134.213 147.747 143.668 149.752C149.162 143.113 152.098 135.631 153.513 128.487C143.457 126.601 135.562 122.504 129.778 118.39ZM106.714 126.477C106.647 126.489 106.579 126.496 106.509 126.497C106.44 126.499 106.37 126.495 106.299 126.486C106.45 126.506 106.588 126.501 106.714 126.477Z" fill="#82B5B2"/>
<path fill-rule="evenodd" clip-rule="evenodd" d="M26.6312 193.533C26.6312 193.533 -21.11 155.11 12.052 109.6C15.5816 104.757 36.9994 76.525 67.4348 57.3897C68.6231 56.6401 70.1528 56.7647 71.2093 57.6967C71.8828 58.3058 72.3208 59.2359 71.8864 60.6639C71.8864 60.6639 76.5967 59.6195 76.272 64.2224C76.272 64.2224 81.7876 62.7179 81.9792 68.4972C81.9792 68.4972 91.0979 57.1315 95.0705 52.1797C96.1118 50.882 97.9319 50.5589 99.3435 51.4216C99.3437 51.4218 99.3437 51.4218 99.3439 51.4218C99.9846 51.8133 100.446 52.4476 100.626 53.1852C100.806 53.9228 100.691 54.7031 100.305 55.354C83.3543 83.9099 65.3355 110.109 47.2627 136.189C47.2627 136.189 62.1709 151.529 69.8532 157.051C72.9727 159.291 104.145 179.103 108.653 189.952C108.653 189.952 109.033 187.466 109.467 184.635C110.217 179.726 113.774 175.75 118.504 174.524C121.712 173.693 124.689 172.922 124.689 172.922C124.689 172.922 130.01 171.998 134.541 172.035C137.509 172.057 140.131 173.999 141.067 176.861C141.497 178.182 141.317 179.631 140.573 180.798C140.153 181.46 139.78 182.041 139.78 182.041C139.78 182.041 140.849 182.41 141.84 182.752C142.897 183.116 143.749 183.92 144.189 184.962C145.044 186.994 144.676 189.346 143.243 191.01C142.796 191.53 142.465 191.913 142.465 191.913H142.789C144.479 191.913 145.999 192.959 146.631 194.556C147.498 196.749 146.796 199.26 144.928 200.664C144.465 201.011 144.143 201.255 144.143 201.255C144.729 201.053 145.276 201.463 145.661 202.403C146.422 204.262 145.723 206.409 144.066 207.51C141.483 209.227 138.073 211.494 138.073 211.494C137.307 227.523 135.403 244.812 126.459 265.418C123.76 271.615 118.451 276.233 112.016 277.984C112.012 277.989 112.007 277.989 112.002 277.992C98.5319 281.655 84.4154 274.985 78.4806 262.153C75.6314 255.986 72.5885 248.385 69.8532 239.434C69.8532 239.434 58.5296 240.939 47.2627 235.136C33.7275 228.165 20.2741 212.363 26.6312 193.533Z" fill="url(#paint1_linear_3_1213)"/>
<path fill-rule="evenodd" clip-rule="evenodd" d="M6.27441 167.358C7.69634 162.918 12.6594 152.946 28.42 153.884C28.42 153.884 34.01 137.304 51.6849 140.64C56.6984 145.613 64.8252 153.437 69.8548 157.051C72.9743 159.291 104.147 179.103 108.655 189.952L108.707 189.613C111.616 198.298 116.899 216.938 114.244 237.109C114.244 237.109 103.778 244.229 93.5995 235.285C93.5995 235.285 83.9636 248.288 70.0279 239.996C69.9698 239.808 69.9122 239.622 69.8548 239.434C69.8548 239.434 58.5312 240.939 47.2643 235.136C33.729 228.165 20.2757 212.363 26.6328 193.533C26.6328 193.533 14.0297 183.39 6.27441 167.358ZM72.5313 152.729L76.6323 155.325C75.1533 154.638 73.776 153.764 72.5313 152.729Z" fill="#FD9500"/>
<path fill-rule="evenodd" clip-rule="evenodd" d="M112.807 232.419L110.48 259.148C110.434 259.685 110.825 260.161 111.353 260.208C111.881 260.256 112.346 259.858 112.394 259.321L114.718 232.592C114.766 232.055 114.375 231.578 113.847 231.532C113.319 231.483 112.853 231.881 112.807 232.419Z" fill="#FD9500"/>
<path fill-rule="evenodd" clip-rule="evenodd" d="M62.9435 239.475C62.125 229.695 64.3109 221.743 65.7725 217.689C65.8897 217.406 66.186 217.249 66.4808 217.31C66.7754 217.371 66.9872 217.635 66.9867 217.94C67.2698 225.89 69.3273 236.6 69.9905 239.88C69.9446 239.731 69.899 239.585 69.8536 239.436C69.8536 239.436 67.0936 239.802 62.9435 239.475ZM19.9768 187.13C23.4524 182.744 26.8884 179.425 30.0871 176.911C35.013 173.04 39.376 171.081 42.4523 170.08C42.8081 170 43.1705 170.19 43.3131 170.53C43.4557 170.871 43.3381 171.267 43.0336 171.472C33.7267 177.949 28.4188 189.167 26.6228 193.527C26.4468 193.383 23.6678 191.114 19.9768 187.13Z" fill="#E15D33"/>
<path fill-rule="evenodd" clip-rule="evenodd" d="M144.161 201.249C144.742 201.064 145.28 201.476 145.659 202.404C145.681 202.456 145.7 202.507 145.719 202.558C143.945 203.687 140.086 205.914 136.561 206.41C136.036 206.483 135.55 206.11 135.478 205.577C135.404 205.042 135.771 204.549 136.297 204.476C139.217 204.065 142.377 202.348 144.161 201.249ZM142.466 191.915H142.787C143.57 191.915 144.317 192.139 144.956 192.54C143.897 193.326 139.678 196.316 135.258 197.385C134.741 197.51 134.225 197.185 134.1 196.66C133.978 196.137 134.297 195.61 134.813 195.485C137.832 194.753 140.746 193.053 142.466 191.915ZM139.791 182.048L141.702 182.707C139.942 185.02 136.641 188.459 132.043 189.397C131.524 189.504 131.017 189.16 130.912 188.632C130.808 188.102 131.144 187.587 131.666 187.482C135.404 186.717 138.165 184.07 139.791 182.048Z" fill="#FD9500"/>
<path fill-rule="evenodd" clip-rule="evenodd" d="M126.943 175.604C126.943 175.604 123.666 176.339 120.21 175.839C119.684 175.763 119.199 176.137 119.123 176.669C119.048 177.204 119.416 177.697 119.939 177.773C123.745 178.325 127.356 177.514 127.356 177.514C127.872 177.397 128.201 176.874 128.086 176.349C127.973 175.822 127.459 175.489 126.943 175.604Z" fill="#FD9500"/>
<path fill-rule="evenodd" clip-rule="evenodd" d="M81.4482 66.0886C81.749 66.7007 81.9452 67.4883 81.9788 68.4985L83.4284 66.6916C83.4003 66.7437 83.3667 66.7937 83.3283 66.8414L79.7345 71.2679C79.3969 71.6836 78.7911 71.7424 78.3825 71.399C77.9738 71.0556 77.9159 70.4394 78.2535 70.0237L81.4482 66.0886ZM75.7854 61.816C76.143 62.3611 76.348 63.1327 76.2719 64.2198L74.0439 66.8145C73.6953 67.2207 73.088 67.2624 72.6887 66.9078C72.2894 66.5532 72.2484 65.9355 72.597 65.5293L75.7854 61.816ZM71.6529 58.2072C72.0448 58.7936 72.2138 59.5876 71.886 60.6652H71.8863C70.6838 61.8182 69.297 63.1561 69.297 63.1561C68.9123 63.5271 68.3039 63.5107 67.9391 63.1195C67.5744 62.7282 67.5905 62.1093 67.9752 61.7383C67.9752 61.7383 70.431 59.3697 71.6529 58.2072Z" fill="#FD9500"/>
<path fill-rule="evenodd" clip-rule="evenodd" d="M47.2605 136.188C47.2605 136.188 40.9221 129.821 37.1679 126.051C36.9101 125.792 36.8709 125.387 37.0743 125.083C37.2774 124.78 37.6669 124.662 38.0045 124.801C42.9589 126.852 51.3644 130.331 51.3644 130.331L47.2605 136.188Z" fill="#FD9500"/>
<path fill-rule="evenodd" clip-rule="evenodd" d="M123.844 177.899L125.301 167.025C122.972 166.205 120.691 165.135 118.49 163.801C116.667 162.7 116.067 160.299 117.15 158.445C118.235 156.592 120.595 155.983 122.415 157.085C136.282 165.474 154.235 160.832 162.482 146.728C170.728 132.624 166.166 114.363 152.299 105.974C150.477 104.872 149.877 102.472 150.962 100.618C152.045 98.7645 154.405 98.1544 156.228 99.2569C173.739 109.85 179.499 132.911 169.086 150.723C161.366 163.926 146.914 170.562 132.819 168.798L131.871 175.872C130.132 176.709 127.251 177.794 123.844 177.899Z" fill="#DC5D3C"/>
<path fill-rule="evenodd" clip-rule="evenodd" d="M122.417 157.082C108.551 148.694 103.988 130.433 112.235 116.329C120.481 102.225 138.434 97.584 152.3 105.972C154.122 107.075 156.482 106.465 157.565 104.611C158.649 102.757 158.049 100.357 156.227 99.2548C138.716 88.662 116.045 94.5224 105.631 112.334C95.2168 130.145 100.979 153.207 118.489 163.8C120.312 164.902 122.671 164.292 123.755 162.439C124.839 160.585 124.239 158.185 122.417 157.082Z" fill="#DC5D3C"/>
<path d="M84.4569 157.051C94.8878 157.051 103.344 148.45 103.344 137.839C103.344 127.229 94.8878 118.628 84.4569 118.628C74.026 118.628 65.5701 127.229 65.5701 137.839C65.5701 148.45 74.026 157.051 84.4569 157.051Z" fill="#FFBB22"/>
<path fill-rule="evenodd" clip-rule="evenodd" d="M77.8896 145.428C74.4827 146.025 70.857 146.11 67.0964 145.413C66.1144 143.089 65.5701 140.528 65.5701 137.839C65.5701 127.236 74.033 118.628 84.4569 118.628C92.7659 118.628 99.8289 124.098 102.352 131.686C101.561 135.298 95.6181 142.513 83.41 143.984C83.805 142.957 83.8371 141.708 83.4121 140.494C82.578 138.111 80.297 136.757 78.3216 137.473C76.3462 138.188 75.4196 140.704 76.2537 143.087C76.5959 144.064 77.1815 144.869 77.8896 145.428Z" fill="black"/>
<path d="M90.9704 117.278C98.0842 117.278 103.851 111.412 103.851 104.177C103.851 96.9405 98.0842 91.0746 90.9704 91.0746C83.8567 91.0746 78.0898 96.9405 78.0898 104.177C78.0898 111.412 83.8567 117.278 90.9704 117.278Z" fill="black"/>
<path fill-rule="evenodd" clip-rule="evenodd" d="M227.593 62.5847C220.642 75.9817 206.804 85.118 190.885 85.118C167.983 85.118 149.387 66.2035 149.387 42.9059C149.387 28.7288 156.273 16.1749 166.833 8.52837L190.885 42.9059L227.593 62.5847Z" fill="#E5734E"/>
<path fill-rule="evenodd" clip-rule="evenodd" d="M190.887 42.9063L166.835 8.52873C172.857 4.14935 180.082 1.3768 187.905 0.815056L190.887 42.9063Z" fill="#FFBB22"/>
<path fill-rule="evenodd" clip-rule="evenodd" d="M188.98 0.741836L190.882 0.692993C202.549 0.692993 213.099 5.60089 220.636 13.5046L190.882 42.9048L187.9 0.813642L188.462 0.769928L188.98 0.741836Z" fill="#A8CFCC"/>
<path fill-rule="evenodd" clip-rule="evenodd" d="M231.852 11.0308C239.123 18.6265 243.599 29.0014 243.599 40.4311C243.599 47.5369 241.867 54.235 238.806 60.1098L202.098 40.4311L231.852 11.0308Z" fill="#FFCBC4"/>
<defs>
<linearGradient id="paint0_linear_3_1213" x1="304.095" y1="217.81" x2="407.885" y2="299.354" gradientUnits="userSpaceOnUse">
<stop stop-color="#82B5B2"/>
<stop offset="0.57" stop-color="#9AC1BB"/>
<stop offset="0.8" stop-color="#CED9CF"/>
<stop offset="1" stop-color="#FFF1E2"/>
</linearGradient>
<linearGradient id="paint1_linear_3_1213" x1="76.5335" y1="230.91" x2="-16.7513" y2="254.726" gradientUnits="userSpaceOnUse">
<stop stop-color="#FFBB22"/>
<stop offset="0.47" stop-color="#FEB019"/>
<stop offset="1" stop-color="#FD9500"/>
</linearGradient>
</defs>
</svg>
