<svg width="538" height="344" viewBox="0 0 538 344" fill="none" xmlns="http://www.w3.org/2000/svg">
<path fill-rule="evenodd" clip-rule="evenodd" d="M195.473 235.904C195.473 229.28 190.093 223.902 183.47 223.902H12.0105C5.38579 223.902 0.00736237 229.28 0.00736237 235.904V331.053C0.00736237 337.677 5.38579 343.054 12.0105 343.054H183.47C190.093 343.054 195.473 337.677 195.473 331.053V235.904Z" fill="#8ABBB8"/>
<path fill-rule="evenodd" clip-rule="evenodd" d="M33.9165 319.842H13.7448V334.103H33.9165V319.842ZM106.933 293.192H13.6982V313.427H106.933V293.192ZM181.141 293.192H133.285V313.427H181.141V293.192Z" fill="white"/>
<path d="M195.472 257.128H0.00736237V285.123H195.472V257.128Z" fill="black"/>
<path fill-rule="evenodd" clip-rule="evenodd" d="M30.7193 305.731C30.6413 304.448 30.7858 303.029 31.0716 301.706C31.5141 299.66 32.313 297.855 33.0577 297.056C33.7021 296.366 34.4069 296.223 34.9941 296.421C35.8341 296.704 36.3305 297.456 36.4221 298.525C36.5536 300.057 35.769 302.381 35.4786 303.045C34.8057 304.58 33.9514 305.729 32.968 306.634C33.1083 307.298 33.3478 307.867 33.7969 308.206C34.2732 308.566 34.9557 308.595 35.8843 308.325C36.3766 308.182 37.3891 307.547 38.3717 306.763C38.2063 305.774 38.381 304.718 38.7689 303.932C39.3668 302.722 40.4258 302.188 41.4098 302.518C42.0775 302.743 42.4406 303.13 42.6282 303.548C42.8733 304.096 42.8254 304.826 42.3662 305.615C42.0584 306.144 41.545 306.74 40.9382 307.322C41.2409 307.565 41.6863 307.684 42.2863 307.674C43.0299 307.661 44.1576 307.089 45.3963 306.433C47.6 305.268 50.0569 303.765 51.4958 303.376C52.7438 303.037 53.5425 303.447 53.8733 304.154C54.1316 304.704 54.373 305.104 54.6223 305.369C54.7424 305.498 54.8461 305.588 54.9666 305.612C55.1277 305.641 55.2836 305.565 55.4538 305.485C55.6734 305.379 55.8976 305.239 56.1315 305.083C57.7546 304.006 59.714 302.5 62.3906 303.41C63.496 303.786 63.7974 304.808 63.6026 306.07C63.5473 306.43 63.4592 306.808 63.4047 307.158C63.3964 307.213 63.3896 307.279 63.3851 307.343C63.5147 307.335 63.6576 307.311 63.8098 307.282C64.2203 307.208 64.6731 307.078 65.1306 306.935C66.2165 306.602 67.3266 306.229 68.0862 306.181C76.1416 305.657 84.251 305.792 92.2971 305.104C92.8793 305.054 93.3922 305.488 93.442 306.07C93.492 306.652 93.0596 307.163 92.4776 307.213C84.4169 307.904 76.2932 307.769 68.2232 308.293C67.4386 308.343 66.23 308.838 65.1312 309.142C64.1372 309.42 63.207 309.537 62.5708 309.373C61.4455 309.079 61.1089 308.087 61.3217 306.777C61.3712 306.472 61.4434 306.149 61.4958 305.837C61.5193 305.697 61.5307 305.493 61.5355 305.361C60.5632 305.088 59.7484 305.348 59.0323 305.729C58.4 306.067 57.8324 306.496 57.302 306.848C56.3395 307.486 55.4305 307.851 54.5765 307.692C53.8029 307.547 52.9402 306.97 52.1333 305.411C51.9936 305.443 51.8105 305.49 51.6604 305.546C51.16 305.734 50.5709 306.025 49.9347 306.361C47.8332 307.473 45.2661 309.045 43.5383 309.571C43.085 309.711 42.6753 309.783 42.3265 309.791C40.9064 309.817 39.9431 309.357 39.3096 308.698C38.1716 309.55 37.0379 310.196 36.4734 310.357C34.7072 310.871 33.429 310.579 32.5231 309.897C31.9182 309.442 31.4646 308.783 31.1623 307.978C30.862 308.161 30.5542 308.333 30.2403 308.494C28.2952 309.494 26.0947 310.124 23.9472 311.204C23.4253 311.466 22.7886 311.254 22.5263 310.733C22.2641 310.209 22.475 309.574 22.9971 309.312C24.7305 308.441 26.4975 307.859 28.1401 307.144C29.0518 306.747 29.9238 306.308 30.7193 305.731ZM34.3216 298.888C34.0276 299.361 33.7508 300.015 33.5126 300.759C33.3718 301.198 33.2459 301.669 33.1411 302.153C33.0556 302.55 32.9833 302.955 32.9291 303.363C33.1493 303.008 33.3533 302.619 33.5399 302.193C33.7373 301.743 34.2407 300.327 34.3137 299.168C34.3198 299.073 34.3227 298.978 34.3216 298.888Z" fill="black"/>
<path d="M537.444 184.545H245.378V342.872H537.444V184.545Z" fill="#E4E4E6"/>
<path fill-rule="evenodd" clip-rule="evenodd" d="M445.834 325.113C446.913 321.167 448.639 317.212 451.032 313.902C451.511 313.241 452.317 311.959 453.243 311.113C454.107 310.325 455.089 309.919 456.039 310.129C457.134 310.369 457.697 311.171 457.815 312.308C457.989 313.994 456.924 316.632 456.51 317.376C454.486 321.036 451.187 324.014 447.683 326.419C447.53 327.066 447.428 327.74 447.475 328.364C447.535 329.161 447.886 329.854 448.863 330.127C450.861 330.681 453.079 330.106 455.2 329.041C456.013 328.632 456.81 328.151 457.575 327.622C457.594 327.292 457.626 326.987 457.658 326.742C458.097 323.24 460.082 319.952 462.466 317.418C462.84 317.021 464.076 315.609 465.088 315.188C465.954 314.828 466.733 314.953 467.301 315.678C467.828 316.351 467.953 317.302 467.703 318.367C467.285 320.158 465.793 322.362 465.171 323.219C463.928 324.931 461.981 326.962 459.717 328.68C459.735 328.791 459.763 328.898 459.802 328.992C459.825 329.048 459.839 329.108 459.895 329.129C460.856 329.491 461.893 329.089 462.909 328.489C464.815 327.364 466.601 325.432 467.719 324.399C468.205 323.951 469.004 323.115 469.845 322.609C470.658 322.119 471.517 321.937 472.282 322.207C473.22 322.54 473.569 323.187 473.571 324.03C473.571 324.52 473.396 325.132 473.137 325.779C472.906 326.354 472.608 326.971 472.437 327.546C472.381 327.731 472.338 327.906 472.331 328.073C472.324 328.188 472.368 328.281 472.502 328.334C473.098 328.57 473.615 328.412 474.093 328.096C474.784 327.636 475.406 326.895 476.025 326.146C476.926 325.058 477.822 323.954 478.783 323.33C479.629 322.782 480.525 322.558 481.505 322.801C482.907 323.15 483.168 324.314 482.798 325.855C482.683 326.347 482.51 326.885 482.429 327.389C482.383 327.689 482.276 327.999 482.577 328.133C483.041 328.338 483.48 328.241 483.91 328.05C484.319 327.867 484.721 327.597 485.12 327.315C485.857 326.798 486.59 326.234 487.336 325.871C487.962 325.566 488.602 325.391 489.256 325.411C489.812 325.43 490.177 325.605 490.432 325.816C490.743 326.074 490.926 326.416 490.998 326.83C491.037 327.047 491.039 327.294 491.021 327.553C491.011 327.689 491.002 327.902 490.995 328.054C493.158 328.336 495.574 327.659 497.734 327.516C501.414 327.269 505.132 327.486 508.796 327.156C509.378 327.102 509.893 327.532 509.944 328.114C509.997 328.697 509.567 329.212 508.985 329.265C505.305 329.598 501.572 329.38 497.875 329.628C495.526 329.785 492.885 330.48 490.547 330.129C490.011 330.05 489.658 329.842 489.41 329.6C489.131 329.325 488.969 328.985 488.902 328.597C488.856 328.332 488.861 328.034 488.881 327.736C488.886 327.682 488.891 327.615 488.895 327.548C488.479 327.618 488.08 327.851 487.675 328.11C486.98 328.556 486.294 329.112 485.594 329.542C484.358 330.302 483.08 330.672 481.717 330.067C480.733 329.63 480.35 328.891 480.287 328.001C480.243 327.396 480.393 326.689 480.574 326.005C480.657 325.689 480.745 325.379 480.8 325.093C480.814 325.016 480.825 324.912 480.83 324.827C480.382 324.783 479.989 325.032 479.599 325.356C478.929 325.91 478.303 326.717 477.656 327.495C476.896 328.415 476.11 329.297 475.262 329.861C474.202 330.563 473.045 330.824 471.728 330.305C470.54 329.838 470.168 328.999 470.214 327.985C470.244 327.315 470.529 326.52 470.854 325.744C471.011 325.372 471.176 325.002 471.298 324.658C471.347 324.522 471.39 324.337 471.418 324.198C471.349 324.215 471.277 324.249 471.206 324.282C471.011 324.365 470.82 324.49 470.635 324.626C470.041 325.06 469.505 325.631 469.154 325.957C467.957 327.061 466.026 329.106 463.986 330.311C462.369 331.268 460.675 331.688 459.146 331.108C458.571 330.891 458.164 330.475 457.908 329.937C457.332 330.3 456.746 330.635 456.152 330.933C453.527 332.25 450.767 332.853 448.297 332.167C446.031 331.536 445.326 329.815 445.361 327.918C445.125 328.061 444.892 328.2 444.658 328.338C443.138 329.235 441.484 330.358 439.781 330.889C439.795 330.884 439.839 330.868 439.839 330.868C439.839 330.868 439.569 330.961 439.444 330.972C439.255 330.993 439.093 330.965 438.971 330.924C438.73 330.843 438.555 330.7 438.43 330.524C438.093 330.048 438.206 329.387 438.682 329.05C438.832 328.944 439.001 328.881 439.169 328.861C440.715 328.375 442.2 327.329 443.582 326.516C444.333 326.074 445.086 325.608 445.834 325.113ZM440.109 329.237L440.123 329.256L440.121 329.251L440.109 329.237ZM440.07 329.193L440.086 329.209L440.082 329.205L440.07 329.193ZM440.031 329.154L440.047 329.168L440.04 329.161L440.031 329.154ZM439.992 329.117L439.999 329.124L439.994 329.119L439.992 329.117ZM465.714 317.277C465.513 317.409 465.234 317.6 465.06 317.762C464.589 318.201 464.187 318.679 464.009 318.869C462.219 320.772 460.657 323.143 460.003 325.714C461.412 324.464 462.614 323.138 463.457 321.976C463.917 321.341 464.947 319.867 465.458 318.488C465.596 318.106 465.7 317.737 465.712 317.404C465.714 317.36 465.716 317.319 465.714 317.277ZM448.694 323.055C451.081 321.163 453.223 318.95 454.657 316.353C454.934 315.856 455.609 314.281 455.708 313.012C455.725 312.811 455.725 312.622 455.699 312.451C455.683 312.34 455.692 312.22 455.584 312.197C455.445 312.164 455.313 312.227 455.182 312.298C455.006 312.393 454.837 312.527 454.671 312.677C453.858 313.421 453.169 314.562 452.749 315.142C451.03 317.517 449.686 320.248 448.694 323.055Z" fill="black"/>
<path fill-rule="evenodd" clip-rule="evenodd" d="M408.422 292.663V290.142C408.422 289.178 409.134 288.395 410.01 288.395C410.885 288.395 411.597 289.178 411.597 290.142V294.211C411.597 295.175 410.885 295.958 410.01 295.958H410.007C409.787 296.086 409.536 296.156 409.269 296.156H271.29C271.012 296.156 270.75 296.077 270.522 295.94C269.649 295.934 268.943 295.154 268.943 294.194V290.142C268.943 289.178 269.654 288.395 270.53 288.395C271.406 288.395 272.118 289.178 272.118 290.142V292.663H408.422ZM463.218 254.832V251.551C463.218 250.588 463.93 249.805 464.806 249.805C465.682 249.805 466.394 250.588 466.394 251.551V255.621C466.394 255.999 466.285 256.348 466.1 256.634C466.071 257.571 465.372 258.325 464.512 258.325H270.644C270.626 258.325 270.607 258.325 270.589 258.325C270.567 258.325 270.549 258.325 270.53 258.325C269.654 258.325 268.943 257.542 268.943 256.578V252.527C268.943 251.563 269.654 250.78 270.53 250.78C271.406 250.78 272.118 251.563 272.118 252.527V254.832H463.218ZM269.612 221.632L269.726 217.566C269.755 216.602 270.488 215.845 271.364 215.875C272.24 215.907 272.928 216.713 272.902 217.673L272.838 219.944H463.594V217.621C463.594 216.658 464.306 215.875 465.182 215.875C466.058 215.875 466.77 216.658 466.77 217.621V221.69C466.77 222.654 466.058 223.437 465.182 223.437C465.163 223.437 465.142 223.437 465.124 223.437C465.105 223.437 465.087 223.437 465.068 223.437H271.205C271.197 223.437 271.187 223.437 271.179 223.437H271.171C271.012 223.434 270.861 223.405 270.718 223.355C270.469 223.268 270.247 223.116 270.07 222.919L270.062 222.91L270.054 222.901L270.049 222.895C269.874 222.691 269.742 222.444 269.67 222.168C269.631 222.01 269.609 221.842 269.612 221.67V221.658C269.612 221.649 269.612 221.641 269.612 221.632Z" fill="white"/>
<path fill-rule="evenodd" clip-rule="evenodd" d="M508.578 297.848V288.392C508.578 287.517 509.289 286.805 510.165 286.805C511.041 286.805 511.753 287.517 511.753 288.392V299.436C511.753 300.315 511.044 301.024 510.165 301.024H431.461C430.583 301.024 429.873 300.315 429.873 299.436V288.392C429.873 287.517 430.585 286.805 431.461 286.805C432.337 286.805 433.049 287.517 433.049 288.392V297.848H508.578Z" fill="white"/>
<path fill-rule="evenodd" clip-rule="evenodd" d="M433.049 277.015V288.392C433.049 289.268 432.337 289.98 431.461 289.98C430.585 289.98 429.873 289.268 429.873 288.392V275.427C429.873 274.551 430.583 273.839 431.461 273.839H510.165C511.044 273.839 511.753 274.551 511.753 275.427V288.392C511.753 289.268 511.041 289.98 510.165 289.98C509.289 289.98 508.578 289.268 508.578 288.392V277.015H433.049Z" fill="white"/>
<path fill-rule="evenodd" clip-rule="evenodd" d="M438.753 294.468H446.838C447.714 294.468 448.426 293.756 448.426 292.88C448.426 292.004 447.714 291.292 446.838 291.292H438.753C437.877 291.292 437.166 292.004 437.166 292.88C437.166 293.756 437.877 294.468 438.753 294.468ZM466.771 294.468H474.853C475.729 294.468 476.441 293.756 476.441 292.88C476.441 292.004 475.729 291.292 474.853 291.292H466.771C465.895 291.292 465.183 292.004 465.183 292.88C465.183 293.756 465.895 294.468 466.771 294.468ZM452.761 294.468H460.846C461.722 294.468 462.433 293.756 462.433 292.88C462.433 292.004 461.722 291.292 460.846 291.292H452.761C451.885 291.292 451.173 292.004 451.173 292.88C451.173 293.756 451.885 294.468 452.761 294.468ZM480.778 294.468H488.863C489.739 294.468 490.451 293.756 490.451 292.88C490.451 292.004 489.739 291.292 488.863 291.292H480.778C479.902 291.292 479.191 292.004 479.191 292.88C479.191 293.756 479.902 294.468 480.778 294.468ZM494.789 294.468H502.871C503.747 294.468 504.459 293.756 504.459 292.88C504.459 292.004 503.747 291.292 502.871 291.292H494.789C493.913 291.292 493.201 292.004 493.201 292.88C493.201 293.756 493.913 294.468 494.789 294.468Z" fill="white"/>
<path d="M500.767 240.117C513.057 240.117 523.021 230.154 523.021 217.864C523.021 205.574 513.057 195.611 500.767 195.611C488.477 195.611 478.514 205.574 478.514 217.864C478.514 230.154 488.477 240.117 500.767 240.117Z" fill="white"/>
<path fill-rule="evenodd" clip-rule="evenodd" d="M500.027 205.945L500.177 195.618C500.373 195.613 500.569 195.611 500.765 195.611C501.281 195.611 501.789 195.629 502.294 195.663L502.144 205.971C504.039 205.947 506.013 205.791 508.042 205.46C506.709 201.607 505.076 198.289 503.681 195.801C504.594 195.92 505.494 196.095 506.37 196.322C507.64 198.739 509.003 201.71 510.144 205.058C512.425 204.553 514.767 203.82 517.138 202.798C517.636 203.338 518.107 203.904 518.549 204.492C515.921 205.669 513.322 206.511 510.79 207.08C510.946 207.604 511.094 208.133 511.234 208.673C512.004 211.587 512.549 214.707 512.708 217.938L523.016 218.245C523.005 218.96 522.958 219.664 522.881 220.36L512.753 220.058C512.732 223.654 512.2 227.359 510.935 231.054C512.875 231.602 514.846 232.324 516.837 233.253C516.307 233.804 515.752 234.327 515.169 234.822C513.489 234.081 511.824 233.497 510.181 233.039C509.305 235.145 508.175 237.241 506.754 239.3C505.745 239.583 504.708 239.795 503.647 239.933C505.56 237.508 507.013 235.026 508.085 232.523C505.915 232.057 503.798 231.808 501.76 231.726L501.636 240.099C501.347 240.11 501.056 240.118 500.765 240.118C500.347 240.118 499.931 240.105 499.518 240.083L499.643 231.7C497.102 231.737 494.71 232.017 492.521 232.435C493.686 234.833 495.199 237.297 497.126 239.819C496.038 239.641 494.98 239.382 493.953 239.051C492.511 236.958 491.336 234.904 490.394 232.898C488.679 233.314 487.123 233.801 485.762 234.293C485.193 233.772 484.651 233.224 484.14 232.647C485.683 232.057 487.501 231.453 489.544 230.943C488.022 227.156 487.318 223.551 487.186 220.18C487.176 219.883 487.168 219.59 487.165 219.299L478.543 219.042C478.524 218.653 478.514 218.258 478.514 217.864C478.514 217.549 478.519 217.237 478.532 216.925L487.221 217.181C487.461 213.228 488.467 209.639 489.806 206.5C487.043 205.765 484.786 204.902 483.198 204.211C483.651 203.626 484.135 203.068 484.643 202.531C486.173 203.169 488.234 203.92 490.703 204.558C492.495 200.962 494.654 198.069 496.406 196.037C497.459 195.828 498.539 195.693 499.64 195.637C497.962 197.336 495.099 200.594 492.807 205.05C494.988 205.503 497.417 205.844 500.027 205.945ZM510.628 219.995L501.937 219.738L501.792 229.614C504.065 229.702 506.431 229.985 508.858 230.527C510.091 226.989 510.61 223.437 510.628 219.995ZM489.285 219.362C489.287 219.606 489.293 219.852 489.303 220.098C489.428 223.348 490.132 226.817 491.637 230.466C494.085 229.969 496.79 229.63 499.675 229.59L499.823 219.674L489.285 219.362ZM508.701 207.493C506.431 207.882 504.224 208.059 502.112 208.083L501.969 217.621L510.578 217.875C510.422 214.853 509.906 211.936 509.188 209.21C509.035 208.631 508.873 208.057 508.701 207.493ZM491.876 207.003C490.566 209.996 489.576 213.442 489.338 217.245L499.855 217.557L499.995 208.051C497.039 207.94 494.305 207.535 491.876 207.003Z" fill="#E4E4E6"/>
<path fill-rule="evenodd" clip-rule="evenodd" d="M309.221 296.907C309.882 310.092 311.994 321.31 315.551 331.663C317.877 338.504 324.3 343.103 331.525 343.103C331.525 343.111 331.525 343.111 331.525 343.111C337.611 343.111 343.1 339.448 345.434 333.827C349.475 324.118 352.881 312.193 355.319 296.907H309.221Z" fill="#F27F71"/>
<path fill-rule="evenodd" clip-rule="evenodd" d="M309.648 303.111C309.603 302.6 309.561 302.087 309.519 301.568L321.507 301.791C321.507 301.791 324.256 310.96 326.776 319.106C330.137 329.964 333.344 337.178 340.294 340.296C339.632 340.77 338.931 341.19 338.2 341.55C335.969 342.365 333.209 343.112 331.523 343.112C331.523 343.112 331.523 343.112 331.523 343.104C331.478 343.104 331.431 343.104 331.386 343.104C331.121 343.101 330.859 343.093 330.597 343.08L330.513 343.075C330.401 343.067 330.288 343.061 330.176 343.051L330.094 343.046L330.012 343.038L329.928 343.03C329.901 343.027 329.875 343.024 329.846 343.022L329.801 343.016C329.703 343.008 329.607 342.995 329.51 342.985C329.457 342.979 329.404 342.971 329.351 342.966L329.266 342.956C329.131 342.934 328.994 342.916 328.859 342.895L328.776 342.881C328.75 342.876 328.721 342.871 328.694 342.866L328.612 342.852C328.586 342.847 328.56 342.844 328.53 342.839L328.454 342.823C328.364 342.807 328.274 342.792 328.184 342.773C327.742 342.683 327.305 342.577 326.876 342.453C326.733 342.413 326.593 342.371 326.45 342.326C326.265 342.267 326.08 342.204 325.897 342.14C325.828 342.117 325.76 342.09 325.691 342.066L325.537 342.008C324.473 341.603 323.457 341.095 322.502 340.492L322.367 340.404C322.314 340.37 322.261 340.336 322.211 340.301L322.097 340.224L321.962 340.134L321.92 340.105C321.47 339.793 321.036 339.462 320.62 339.108C320.475 338.986 320.332 338.862 320.192 338.735L320.072 338.623L319.953 338.515C319.914 338.478 319.877 338.441 319.837 338.404L319.739 338.308C319.199 337.782 318.694 337.218 318.228 336.623C317.987 336.313 317.754 335.995 317.535 335.67C317.466 335.564 317.397 335.461 317.328 335.355C317.243 335.223 317.161 335.088 317.079 334.953L317.053 334.91L317.026 334.865C316.839 334.551 316.661 334.228 316.492 333.9L316.455 333.825L316.428 333.77C316.203 333.317 315.997 332.854 315.809 332.378L315.78 332.298C315.738 332.187 315.695 332.076 315.656 331.965C315.619 331.864 315.584 331.764 315.55 331.663L315.47 331.433L315.447 331.359L315.394 331.205L315.362 331.116L315.314 330.973L315.282 330.88L315.237 330.742L315.206 330.647L315.158 330.507L315.129 330.414L315.081 330.266L315.052 330.184L314.994 329.999L314.978 329.954L314.901 329.721L314.883 329.657L314.827 329.491L314.801 329.403L314.753 329.258L314.724 329.162L314.679 329.022L314.65 328.927L314.605 328.787L314.576 328.691L314.531 328.546L314.504 328.459L314.451 328.292L314.43 328.226L314.361 327.99L314.346 327.945L314.29 327.757L314.264 327.673L314.219 327.522L314.192 327.429L314.147 327.286L314.121 327.188L314.078 327.048L314.049 326.953L314.007 326.807L313.98 326.715L313.935 326.558L313.912 326.479L313.845 326.249L313.843 326.243L313.777 326.005L313.755 325.929L313.708 325.77L313.684 325.677L313.642 325.532L313.615 325.434L313.576 325.291L313.549 325.193L313.509 325.05L313.483 324.955L313.441 324.801L313.419 324.714L313.366 324.526L313.353 324.476L313.29 324.237L313.271 324.169L313.226 323.997L313.202 323.907L313.163 323.756L313.136 323.658L313.099 323.515L313.075 323.414L313.038 323.272L313.012 323.174L312.975 323.023L312.951 322.93L312.906 322.761L312.89 322.689L312.829 322.446L312.816 322.398L312.768 322.205L312.747 322.118L312.71 321.962L312.686 321.864L312.649 321.718L312.625 321.615L312.591 321.472L312.567 321.369L312.53 321.223L312.509 321.125L312.472 320.964L312.451 320.879L312.398 320.654L312.393 320.633L312.337 320.39L312.318 320.305L312.281 320.146L312.26 320.046L312.226 319.897L312.202 319.794L312.17 319.649L312.146 319.545L312.115 319.4L312.094 319.297L312.059 319.143L312.038 319.048L311.998 318.865L311.985 318.799L311.932 318.556L311.916 318.476L311.879 318.307L311.858 318.206L311.829 318.055L311.805 317.95L311.776 317.804L311.755 317.696L311.726 317.553L311.702 317.444L311.673 317.299L311.652 317.193L311.62 317.031L311.601 316.941L311.554 316.695L311.54 316.624L311.506 316.444L311.485 316.341L311.456 316.19L311.435 316.079L311.408 315.938L311.387 315.822L311.36 315.682L311.339 315.568L311.313 315.425L311.292 315.314L311.265 315.166L311.247 315.057L311.212 314.872L311.199 314.806L311.191 314.755L311.157 314.557L311.136 314.446L311.112 314.3L311.091 314.181L311.067 314.044L311.046 313.922L311.022 313.787L311.001 313.665L310.979 313.53L310.958 313.406L310.934 313.271L310.916 313.149L310.892 313.001L310.874 312.89L310.834 312.644L310.813 312.522L310.791 312.384L310.77 312.255L310.752 312.125L310.731 311.993L310.709 311.866L310.691 311.733L310.67 311.606L310.649 311.471L310.63 311.347L310.609 311.209L310.593 311.087L310.572 310.947L310.556 310.836L310.535 310.698L310.514 310.556L310.498 310.442L310.477 310.296L310.461 310.18L310.44 310.034L310.424 309.918L310.402 309.772L310.389 309.656L310.368 309.508L310.352 309.396L310.331 309.243L310.318 309.14L310.297 308.978L310.289 308.909L310.262 308.724L310.236 308.507L310.23 308.473L310.209 308.298L310.196 308.208L310.178 308.041L310.164 307.944L310.143 307.777L310.133 307.679L310.111 307.512L310.101 307.417L310.08 307.245L310.069 307.16L310.048 306.975L310.043 306.93L310.016 306.718C310.008 306.634 309.998 306.549 309.99 306.464L309.963 306.247L309.961 306.205L309.937 306.009L309.931 305.938L309.91 305.747L309.902 305.673L309.881 305.482L309.873 305.408L309.852 305.212L309.847 305.152L309.826 304.943L309.823 304.921C309.788 304.591 309.757 304.262 309.725 303.929L309.722 303.905L309.701 303.68L309.696 303.635L309.677 303.416L309.672 303.371L309.654 303.146L309.648 303.111Z" fill="#FFC2BA"/>
<path fill-rule="evenodd" clip-rule="evenodd" d="M165.654 297.227C166.316 310.412 168.428 321.63 171.985 331.983C174.311 338.824 180.734 343.423 187.958 343.423C187.958 343.431 187.958 343.431 187.958 343.431C194.045 343.431 199.534 339.768 201.868 334.147C205.909 324.438 209.315 312.513 211.752 297.227H165.654Z" fill="#FFC3BB"/>
<path fill-rule="evenodd" clip-rule="evenodd" d="M165.75 298.958C165.715 298.384 165.684 297.809 165.654 297.227H211.752C211.53 298.614 211.302 299.969 211.067 301.3L203.533 301.176C202.138 305.645 193.696 332.642 189.549 336.982C186.154 340.533 184.388 341.713 182.636 342.563C177.772 340.946 173.8 337.159 172.04 332.144L172.038 332.139L172.016 332.073L171.985 331.983C171.458 330.45 170.963 328.897 170.5 327.322C170.436 327.111 170.376 326.899 170.315 326.684C170.145 326.102 169.984 325.515 169.823 324.922C169.791 324.798 169.756 324.673 169.722 324.546C169.537 323.845 169.354 323.136 169.179 322.421C169.031 321.818 168.886 321.209 168.748 320.598C168.552 319.748 168.367 318.891 168.19 318.023C168.065 317.417 167.946 316.803 167.83 316.186C167.782 315.924 167.732 315.662 167.684 315.398L167.637 315.128C167.568 314.744 167.499 314.357 167.435 313.968C167.316 313.267 167.203 312.558 167.094 311.843L167.052 311.566C166.978 311.084 166.909 310.597 166.84 310.107L166.811 309.89L166.803 309.827C166.565 308.067 166.356 306.275 166.178 304.444L166.152 304.15L166.147 304.103C166.096 303.56 166.046 303.015 166.001 302.464C165.906 301.311 165.821 300.144 165.75 298.958Z" fill="#F27F71"/>
<path fill-rule="evenodd" clip-rule="evenodd" d="M385.906 173.752C387.87 173.201 389.484 172.702 389.887 172.451C394.608 169.512 398.593 164.661 400.708 159.155C402.751 153.842 403.262 147.945 400.782 142.729C397.807 147.008 393.089 149.915 388.788 150.255C383.998 150.633 379.394 148.29 377.081 141.513C374.355 133.524 379.664 127.164 387.595 125.57C390.63 124.96 394.105 125.143 397.553 126.375C397.342 124.317 396.831 122.303 396.082 120.365C394.108 115.256 390.598 110.646 386.43 107.082C385.364 106.223 385.197 104.66 386.055 103.594C386.912 102.528 388.476 102.36 389.543 103.219C394.632 107.076 398.982 112.228 401.629 118.031C403.389 121.891 404.357 126.042 404.304 130.331C406.506 132.215 408.544 134.677 410.269 137.796C414.591 145.61 414.66 154.733 411.992 163.115C409.37 171.363 403.868 178.756 397.207 183.467C396.373 184.06 393.142 185.531 389.394 186.965C389.85 189.191 390.27 191.509 390.659 193.933C397.911 239.097 397.627 281.289 384.292 323.838C380.51 335.831 369.388 343.99 356.814 343.99C356.812 343.993 356.812 343.993 356.812 343.993C345.647 343.993 335.72 336.874 332.142 326.294C327.839 313.578 322.795 298.665 322.795 298.665H200.56C200.56 298.665 194.264 316.473 189.566 329.766C186.552 338.293 178.491 343.993 169.448 343.993H169.446C158.19 343.993 148.419 336.234 145.87 325.27C142.968 312.789 139.683 298.665 139.683 298.665H102.911C98.6426 298.665 94.6399 296.17 93.1288 292.179C88.4232 279.749 79.0533 247.767 94.0317 210.439C95.1318 207.7 97.9786 206.062 100.932 206.062C110.729 206.054 132.37 206.054 132.37 206.054C132.37 206.054 135.642 156.215 180.775 129.934L168.498 106.503C168.498 106.503 189.027 98.4157 207.199 121.791C250.511 111.599 288.704 110.503 337.342 124.934C348.727 128.292 359.024 134.593 367.199 143.2C372.889 149.178 377.372 155.167 380.929 161.961C382.842 165.617 384.485 169.507 385.906 173.752ZM395.965 136.714C394.52 135.69 392.98 135.094 391.461 134.904C388.047 134.477 384.416 135.776 385.303 138.976C386.065 141.736 387.894 142.658 389.855 142.051C392.271 141.302 394.663 139.305 395.965 136.714Z" fill="#FFC3BB"/>
<path fill-rule="evenodd" clip-rule="evenodd" d="M199.699 301.109L203.639 288.983C203.83 288.393 204.415 288.02 205.029 288.096C205.645 288.173 206.122 288.676 206.164 289.295L206.81 298.669H200.562L199.699 301.109ZM315.329 298.669L317.372 288.528C317.464 288.078 317.845 287.744 318.306 287.715C318.764 287.683 319.187 287.967 319.335 288.403C320.836 292.833 323.194 299.796 323.194 299.796L323.183 299.799L322.799 298.669H315.329ZM362.991 214.322C362.991 180.107 336.672 151.648 302.56 148.98C277.662 147.009 252.91 147.026 228.304 148.974C194.189 151.636 167.865 180.096 167.865 214.314C167.863 214.314 167.863 214.314 167.863 214.314C167.863 249.776 196.057 278.815 231.506 279.858C254.204 280.533 276.818 280.533 299.347 279.866C334.796 278.823 362.991 249.784 362.991 214.322ZM117.083 206.166C119.189 210.855 121.124 217.223 122.449 225.866C122.67 227.308 121.678 228.66 120.234 228.88C118.79 229.102 117.439 228.11 117.217 226.668C115.731 216.974 113.511 210.49 111.228 206.169L115.626 206.166H117.083ZM127.402 206.166C129.066 209.768 130.565 214.359 131.663 220.213C131.932 221.65 130.985 223.034 129.55 223.301C128.114 223.571 126.73 222.624 126.461 221.19C125.178 214.346 123.35 209.538 121.464 206.166H127.402ZM389.396 186.966C389.854 189.192 385.53 172.614 385.911 173.753C387.872 173.202 389.489 172.703 389.891 172.452C390.18 172.272 390.468 172.084 390.751 171.89C391.836 175.402 393.096 179.9 394.208 184.987C392.858 185.587 391.185 186.281 389.396 186.966ZM400.787 142.73C400.3 143.805 404.65 136.554 404.309 130.333C405.995 131.775 407.585 133.558 409.012 135.715C408.313 139.098 406.786 143.466 403.489 147.729C403.187 148.119 402.798 148.402 402.369 148.571C402.184 146.575 401.678 144.609 400.787 142.73ZM397.555 126.376C398.011 131.965 395.608 137.435 395.97 136.715C394.525 135.691 392.985 135.096 391.463 134.905C391.334 134.889 391.204 134.875 391.074 134.864C393.165 131.413 392.829 127.673 392.257 125.272C393.988 125.383 395.777 125.74 397.555 126.376ZM180.748 129.954L182.704 133.86C183.357 135.166 182.828 136.758 181.523 137.412C180.216 138.066 178.626 137.536 177.972 136.23L176.231 132.753C177.689 131.794 179.195 130.86 180.748 129.954ZM209.041 124.846C209.041 124.846 206.468 120.845 207.204 121.792C208.98 121.374 210.748 120.972 212.51 120.584L213.365 121.793C214.207 122.986 213.921 124.639 212.73 125.481C211.536 126.324 209.882 126.039 209.041 124.846Z" fill="#F27F71"/>
<path d="M99.4882 298.776C107.302 298.776 113.636 278.044 113.636 252.469C113.636 226.895 107.302 206.163 99.4882 206.163C91.6747 206.163 85.3407 226.895 85.3407 252.469C85.3407 278.044 91.6747 298.776 99.4882 298.776Z" fill="#F27F71"/>
<path fill-rule="evenodd" clip-rule="evenodd" d="M91.9214 231.817V273.124C91.9214 274.583 93.1072 275.771 94.5678 275.771C96.0283 275.771 97.2142 274.583 97.2142 273.124V231.817C97.2142 230.356 96.0283 229.17 94.5678 229.17C93.1072 229.17 91.9214 230.356 91.9214 231.817Z" fill="#D7441E"/>
<path fill-rule="evenodd" clip-rule="evenodd" d="M101.762 231.817V273.124C101.762 274.583 102.948 275.771 104.408 275.771C105.869 275.771 107.055 274.583 107.055 273.124V231.817C107.055 230.356 105.869 229.17 104.408 229.17C102.948 229.17 101.762 230.356 101.762 231.817Z" fill="#D7441E"/>
<path fill-rule="evenodd" clip-rule="evenodd" d="M142.416 194.174C142.359 195.672 142.188 198.882 142.974 201.776C143.96 205.402 146.271 208.538 151.177 208.815C153.198 208.928 155.97 208.667 158.231 206.479C160.165 204.607 161.901 201.071 161.764 194.22L156.471 194.327C156.564 198.927 155.849 201.418 154.55 202.676C153.579 203.615 152.343 203.579 151.475 203.531C149.376 203.411 148.504 201.939 148.082 200.387C147.461 198.101 147.66 195.559 147.705 194.375L142.416 194.174Z" fill="black"/>
<path d="M323.304 128.921H218.322L220.974 140.585H325.957L323.304 128.921Z" fill="black"/>
<path fill-rule="evenodd" clip-rule="evenodd" d="M227.291 149.059C227.632 149.027 227.968 148.998 228.307 148.971C252.913 147.024 277.665 147.007 302.563 148.977C307.578 149.37 312.423 150.319 317.041 151.762V207.045H227.291V149.059Z" fill="#82B5B2"/>
<path fill-rule="evenodd" clip-rule="evenodd" d="M243.409 148.02C261.687 147.163 280.043 147.372 298.483 148.672C293.836 159.188 283.311 166.533 271.085 166.533C258.607 166.533 247.902 158.883 243.409 148.02Z" fill="#A8CFCC"/>
<path fill-rule="evenodd" clip-rule="evenodd" d="M255.963 207.044V181.263C255.963 178.188 258.456 175.695 261.529 175.695C264.604 175.695 267.097 178.188 267.097 181.263V207.044H255.963ZM274.557 207.044V187.837C274.557 184.764 277.052 182.269 280.125 182.269C283.197 182.269 285.693 184.764 285.693 187.837V207.044H274.557Z" fill="#A8CFCC"/>
<path d="M317.04 56.7218H227.291V134.25H317.04V56.7218Z" fill="#A8CFCC"/>
<path fill-rule="evenodd" clip-rule="evenodd" d="M241.235 134.25C242.434 118.822 255.349 106.659 271.082 106.659C286.815 106.659 299.729 118.822 300.928 134.25H241.235Z" fill="#82B5B2"/>
<path fill-rule="evenodd" clip-rule="evenodd" d="M288.931 56.7218V78.6892C288.931 81.7616 286.438 84.2564 283.366 84.2564C280.293 84.2564 277.797 81.7616 277.797 78.6892V56.7218H288.931ZM270.337 56.7218V72.1149C270.337 75.1877 267.842 77.6822 264.769 77.6822C261.697 77.6822 259.201 75.1877 259.201 72.1149V56.7218H270.337Z" fill="#82B5B2"/>
<path d="M227.385 234.617C243.001 234.617 255.66 222.085 255.66 206.626C255.66 191.167 243.001 178.635 227.385 178.635C211.769 178.635 199.109 191.167 199.109 206.626C199.109 222.085 211.769 234.617 227.385 234.617Z" fill="#FFCF84"/>
<path fill-rule="evenodd" clip-rule="evenodd" d="M227.387 184.794C239.559 184.794 249.441 194.577 249.441 206.627C249.441 218.676 239.559 228.459 227.387 228.459C226.892 228.459 226.491 228.857 226.491 229.346C226.491 229.836 226.892 230.233 227.387 230.233C240.547 230.233 251.233 219.655 251.233 206.627C251.233 193.598 240.547 183.02 227.387 183.02C226.892 183.02 226.491 183.417 226.491 183.907C226.491 184.396 226.892 184.794 227.387 184.794Z" fill="#FD9909"/>
<path fill-rule="evenodd" clip-rule="evenodd" d="M227.385 228.459C215.212 228.459 205.329 218.676 205.329 206.627C205.329 194.577 215.212 184.794 227.385 184.794C227.879 184.794 228.281 184.396 228.281 183.907C228.281 183.417 227.879 183.02 227.385 183.02C214.223 183.02 203.539 193.598 203.539 206.627C203.539 219.655 214.223 230.233 227.385 230.233C227.879 230.233 228.281 229.836 228.281 229.346C228.281 228.857 227.879 228.459 227.385 228.459Z" fill="#FD9909"/>
<path fill-rule="evenodd" clip-rule="evenodd" d="M230.787 234.416L230.208 229.805C230.147 229.319 230.496 228.876 230.987 228.815C231.478 228.755 231.924 229.1 231.987 229.586L232.559 234.149C231.975 234.256 231.383 234.345 230.787 234.416ZM236.074 233.268L234.472 228.589C234.314 228.125 234.565 227.621 235.035 227.464C235.502 227.307 236.011 227.556 236.169 228.019L237.761 232.669C237.208 232.885 236.645 233.085 236.074 233.268ZM211.796 229.978L214.286 225.924C214.542 225.506 215.094 225.373 215.517 225.627C215.94 225.882 216.074 226.428 215.818 226.846L213.32 230.911C212.801 230.615 212.292 230.304 211.796 229.978ZM250.647 222.531L246.531 219.516C246.135 219.225 246.051 218.669 246.345 218.276C246.639 217.882 247.2 217.799 247.597 218.09L251.621 221.038C251.313 221.547 250.987 222.044 250.647 222.531ZM200.51 215.351L205.346 213.197C205.796 212.996 206.328 213.195 206.53 213.641C206.733 214.088 206.532 214.613 206.08 214.814L201.125 217.022C200.903 216.474 200.697 215.917 200.51 215.351ZM254.819 199.837C254.963 200.409 255.09 200.987 255.197 201.571L250.43 202.684C249.95 202.797 249.466 202.501 249.353 202.025C249.238 201.549 249.538 201.071 250.018 200.958L254.819 199.837ZM204.018 190.865L208.279 193.623C208.693 193.891 208.809 194.441 208.539 194.851C208.268 195.26 207.713 195.375 207.299 195.107L203.056 192.36C203.361 191.851 203.683 191.352 204.018 190.865ZM206.799 187.443L210.264 189.965C210.662 190.255 210.748 190.811 210.454 191.205C210.162 191.599 209.599 191.684 209.201 191.394L205.609 188.777C205.991 188.32 206.389 187.875 206.799 187.443ZM243.726 183.788C244.213 184.131 244.69 184.488 245.154 184.861L242.056 188.727C241.748 189.11 241.183 189.175 240.796 188.87C240.409 188.566 240.345 188.008 240.651 187.625L243.726 183.788ZM238.928 181.071C239.474 181.314 240.012 181.574 240.538 181.848L238.354 185.904C238.122 186.336 237.579 186.499 237.141 186.269C236.706 186.039 236.541 185.501 236.774 185.069L238.928 181.071ZM221.042 179.344L222.303 183.795C222.436 184.267 222.158 184.756 221.682 184.889C221.205 185.021 220.711 184.746 220.578 184.274L219.31 179.795C219.879 179.627 220.456 179.476 221.042 179.344Z" fill="#FD9909"/>
<path d="M302.59 269.293C318.206 269.293 330.866 256.761 330.866 241.302C330.866 225.843 318.206 213.311 302.59 213.311C286.974 213.311 274.315 225.843 274.315 241.302C274.315 256.761 286.974 269.293 302.59 269.293Z" fill="#FFCF84"/>
<path fill-rule="evenodd" clip-rule="evenodd" d="M302.593 219.47C314.764 219.47 324.647 229.253 324.647 241.303C324.647 253.353 314.764 263.136 302.593 263.136C302.098 263.136 301.697 263.533 301.697 264.023C301.697 264.512 302.098 264.91 302.593 264.91C315.753 264.91 326.439 254.332 326.439 241.303C326.439 228.274 315.753 217.697 302.593 217.697C302.098 217.697 301.697 218.094 301.697 218.584C301.697 219.073 302.098 219.47 302.593 219.47Z" fill="#FD9909"/>
<path fill-rule="evenodd" clip-rule="evenodd" d="M302.591 263.136C290.417 263.136 280.535 253.353 280.535 241.303C280.535 229.253 290.417 219.47 302.591 219.47C303.085 219.47 303.486 219.073 303.486 218.584C303.486 218.094 303.085 217.697 302.591 217.697C289.429 217.697 278.745 228.274 278.745 241.303C278.745 254.332 289.429 264.91 302.591 264.91C303.085 264.91 303.486 264.512 303.486 264.023C303.486 263.533 303.085 263.136 302.591 263.136Z" fill="#FD9909"/>
<path fill-rule="evenodd" clip-rule="evenodd" d="M305.993 269.093L305.414 264.481C305.353 263.996 305.702 263.552 306.193 263.492C306.684 263.432 307.13 263.777 307.193 264.263L307.764 268.825C307.18 268.933 306.589 269.022 305.993 269.093ZM311.28 267.945L309.678 263.265C309.52 262.802 309.771 262.298 310.24 262.141C310.708 261.984 311.217 262.233 311.375 262.696L312.967 267.345C312.414 267.562 311.851 267.762 311.28 267.945ZM287.002 264.655L289.492 260.601C289.748 260.183 290.3 260.05 290.723 260.304C291.146 260.558 291.28 261.104 291.024 261.523L288.526 265.587C288.007 265.292 287.498 264.981 287.002 264.655ZM325.852 257.207L321.737 254.193C321.341 253.901 321.257 253.346 321.551 252.952C321.845 252.559 322.405 252.476 322.803 252.767L326.827 255.715C326.519 256.223 326.193 256.721 325.852 257.207ZM275.716 250.028L280.552 247.873C281.001 247.672 281.534 247.872 281.736 248.318C281.938 248.764 281.738 249.29 281.286 249.491L276.331 251.699C276.109 251.15 275.903 250.593 275.716 250.028ZM330.025 234.514C330.168 235.086 330.296 235.664 330.403 236.248L325.636 237.361C325.156 237.473 324.672 237.178 324.559 236.702C324.444 236.225 324.743 235.747 325.224 235.635L330.025 234.514ZM279.224 225.541L283.485 228.3C283.898 228.568 284.015 229.118 283.744 229.527C283.474 229.937 282.918 230.052 282.505 229.784L278.262 227.037C278.567 226.527 278.889 226.029 279.224 225.541ZM282.005 222.12L285.47 224.642C285.867 224.932 285.953 225.488 285.66 225.882C285.368 226.276 284.805 226.361 284.407 226.071L280.815 223.454C281.197 222.997 281.594 222.552 282.005 222.12ZM318.932 218.465C319.419 218.808 319.895 219.165 320.359 219.537L317.262 223.404C316.954 223.787 316.389 223.851 316.002 223.547C315.615 223.243 315.551 222.685 315.857 222.301L318.932 218.465ZM314.134 215.748C314.68 215.991 315.218 216.25 315.744 216.525L313.56 220.58C313.327 221.012 312.785 221.176 312.347 220.946C311.912 220.715 311.747 220.178 311.98 219.746L314.134 215.748ZM296.248 214.02L297.509 218.472C297.642 218.943 297.364 219.433 296.888 219.565C296.411 219.698 295.917 219.422 295.784 218.951L294.516 214.472C295.085 214.304 295.662 214.153 296.248 214.02Z" fill="#FD9909"/>
<path d="M166.2 56.575C181.817 56.575 194.476 44.043 194.476 28.5841C194.476 13.1252 181.817 0.593231 166.2 0.593231C150.584 0.593231 137.925 13.1252 137.925 28.5841C137.925 44.043 150.584 56.575 166.2 56.575Z" fill="#FFCF84"/>
<path fill-rule="evenodd" clip-rule="evenodd" d="M166.203 6.75205C178.374 6.75205 188.257 16.535 188.257 28.5849C188.257 40.6348 178.374 50.4178 166.203 50.4178C165.708 50.4178 165.307 50.8151 165.307 51.3046C165.307 51.7941 165.708 52.1914 166.203 52.1914C179.363 52.1914 190.049 41.6137 190.049 28.5849C190.049 15.5561 179.363 4.97849 166.203 4.97849C165.708 4.97849 165.307 5.37581 165.307 5.86527C165.307 6.35473 165.708 6.75205 166.203 6.75205Z" fill="#FD9909"/>
<path fill-rule="evenodd" clip-rule="evenodd" d="M166.201 50.4178C154.028 50.4178 144.145 40.6348 144.145 28.5849C144.145 16.535 154.028 6.75205 166.201 6.75205C166.695 6.75205 167.097 6.35473 167.097 5.86527C167.097 5.37581 166.695 4.97849 166.201 4.97849C153.039 4.97849 142.355 15.5561 142.355 28.5849C142.355 41.6137 153.039 52.1914 166.201 52.1914C166.695 52.1914 167.097 51.7941 167.097 51.3046C167.097 50.8151 166.695 50.4178 166.201 50.4178Z" fill="#FD9909"/>
<path fill-rule="evenodd" clip-rule="evenodd" d="M169.603 56.3746L169.024 51.7632C168.963 51.2774 169.312 50.8341 169.803 50.7737C170.294 50.7134 170.74 51.0587 170.803 51.5445L171.375 56.107C170.79 56.2143 170.199 56.3037 169.603 56.3746ZM174.89 55.2263L173.288 50.547C173.13 50.0834 173.381 49.5795 173.851 49.4226C174.318 49.2654 174.827 49.5142 174.985 49.9777L176.577 54.6271C176.024 54.8439 175.461 55.0438 174.89 55.2263ZM150.612 51.9366L153.102 47.8827C153.358 47.4645 153.91 47.3315 154.333 47.5858C154.756 47.8402 154.89 48.3861 154.634 48.8043L152.136 52.869C151.617 52.5737 151.108 52.2624 150.612 51.9366ZM189.463 44.4892L185.347 41.4744C184.951 41.1832 184.867 40.6275 185.161 40.234C185.455 39.8406 186.016 39.7576 186.413 40.0486L190.437 42.9967C190.129 43.505 189.803 44.0028 189.463 44.4892ZM139.326 37.3095L144.162 35.1551C144.612 34.9542 145.144 35.1535 145.346 35.5998C145.549 36.0462 145.348 36.5715 144.896 36.7725L139.941 38.9808C139.719 38.4322 139.513 37.8751 139.326 37.3095ZM193.635 21.7958C193.779 22.3672 193.906 22.9454 194.013 23.5298L189.246 24.6428C188.766 24.7552 188.282 24.4595 188.169 23.9833C188.054 23.507 188.354 23.029 188.834 22.9165L193.635 21.7958ZM142.834 12.8229L147.095 15.5815C147.509 15.8495 147.625 16.3995 147.354 16.8092C147.084 17.2187 146.529 17.3338 146.115 17.0658L141.872 14.3184C142.177 13.809 142.499 13.3103 142.834 12.8229ZM145.615 9.40128L149.08 11.9237C149.478 12.2137 149.564 12.7693 149.27 13.1634C148.978 13.5577 148.415 13.6423 148.017 13.3523L144.425 10.7355C144.807 10.2785 145.205 9.8335 145.615 9.40128ZM182.542 5.74681C183.029 6.08947 183.505 6.44685 183.97 6.81912L180.872 10.6854C180.564 11.0688 179.999 11.133 179.612 10.8288C179.225 10.5247 179.161 9.96635 179.467 9.5829L182.542 5.74681ZM177.744 3.02968C178.29 3.27248 178.828 3.53214 179.354 3.80687L177.17 7.86216C176.937 8.29403 176.395 8.45756 175.957 8.22735C175.522 7.99696 175.357 7.45938 175.59 7.02752L177.744 3.02968ZM159.858 1.30203L161.119 5.75373C161.252 6.22497 160.974 6.71483 160.498 6.84696C160.021 6.97927 159.527 6.70401 159.394 6.2326L158.126 1.75376C158.695 1.58563 159.272 1.43487 159.858 1.30203Z" fill="#FD9909"/>
<path d="M70.7287 159.532C86.3447 159.532 99.004 147 99.004 131.541C99.004 116.082 86.3447 103.55 70.7287 103.55C55.1127 103.55 42.4534 116.082 42.4534 131.541C42.4534 147 55.1127 159.532 70.7287 159.532Z" fill="#FFCF84"/>
<path fill-rule="evenodd" clip-rule="evenodd" d="M70.7309 109.709C82.9026 109.709 92.7854 119.492 92.7854 131.542C92.7854 143.592 82.9026 153.375 70.7309 153.375C70.2364 153.375 69.8351 153.772 69.8351 154.262C69.8351 154.751 70.2364 155.148 70.7309 155.148C83.8915 155.148 94.577 144.571 94.577 131.542C94.577 118.513 83.8915 107.936 70.7309 107.936C70.2364 107.936 69.8351 108.333 69.8351 108.822C69.8351 109.312 70.2364 109.709 70.7309 109.709Z" fill="#FD9909"/>
<path fill-rule="evenodd" clip-rule="evenodd" d="M70.729 153.375C58.5557 153.375 48.6729 143.592 48.6729 131.542C48.6729 119.492 58.5557 109.709 70.729 109.709C71.2234 109.709 71.6248 109.312 71.6248 108.822C71.6248 108.333 71.2234 107.936 70.729 107.936C57.5669 107.936 46.8828 118.513 46.8828 131.542C46.8828 144.571 57.5669 155.148 70.729 155.148C71.2234 155.148 71.6248 154.751 71.6248 154.262C71.6248 153.772 71.2234 153.375 70.729 153.375Z" fill="#FD9909"/>
<path fill-rule="evenodd" clip-rule="evenodd" d="M74.1308 159.332L73.5521 154.72C73.4912 154.234 73.8406 153.791 74.3315 153.731C74.8224 153.67 75.2685 154.016 75.3312 154.502L75.9027 159.064C75.3186 159.171 74.7274 159.261 74.1308 159.332ZM79.4178 158.183L77.8161 153.504C77.6585 153.041 77.9093 152.537 78.3787 152.38C78.8463 152.223 79.3551 152.471 79.5128 152.935L81.1055 157.584C80.5519 157.801 79.9894 158.001 79.4178 158.183ZM55.1398 154.894L57.6301 150.84C57.8863 150.422 58.4381 150.289 58.861 150.543C59.2838 150.797 59.4181 151.343 59.1619 151.761L56.6644 155.826C56.1449 155.531 55.6361 155.22 55.1398 154.894ZM93.9907 147.446L89.8754 144.432C89.4795 144.14 89.3953 143.585 89.6891 143.191C89.9829 142.798 90.5437 142.715 90.9414 143.006L94.9654 145.954C94.6572 146.462 94.3312 146.96 93.9907 147.446ZM43.8545 140.267L48.69 138.112C49.1397 137.911 49.6718 138.111 49.8743 138.557C50.0767 139.003 49.876 139.529 49.4246 139.73L44.469 141.938C44.2468 141.389 44.0408 140.832 43.8545 140.267ZM98.1634 124.753C98.3067 125.324 98.4339 125.903 98.5414 126.487L93.774 127.6C93.2938 127.712 92.8101 127.417 92.6972 126.94C92.5825 126.464 92.8817 125.986 93.3619 125.874L98.1634 124.753ZM47.3624 115.78L51.6229 118.539C52.0367 118.807 52.1532 119.357 51.8826 119.766C51.6121 120.176 51.0567 120.291 50.6429 120.023L46.4003 117.275C46.7049 116.766 47.0274 116.267 47.3624 115.78ZM50.143 112.358L53.608 114.881C54.0057 115.171 54.0917 115.726 53.7979 116.121C53.5058 116.515 52.9433 116.599 52.5455 116.309L48.9534 113.693C49.335 113.236 49.7327 112.791 50.143 112.358ZM87.0698 108.704C87.5571 109.047 88.0337 109.404 88.4977 109.776L85.4 113.642C85.0918 114.026 84.5275 114.09 84.1405 113.786C83.7535 113.482 83.689 112.923 83.9954 112.54L87.0698 108.704ZM82.2719 105.987C82.8183 106.23 83.3558 106.489 83.8825 106.764L81.6985 110.819C81.4656 111.251 80.9228 111.415 80.4856 111.184C80.0503 110.954 79.8854 110.417 80.1184 109.985L82.2719 105.987ZM64.3863 104.259L65.6476 108.711C65.7801 109.182 65.5024 109.672 65.0259 109.804C64.5493 109.936 64.0548 109.661 63.9222 109.19L62.6538 104.711C63.2235 104.543 63.8004 104.392 64.3863 104.259Z" fill="#FD9909"/>
<path d="M457.073 121.681C472.689 121.681 485.348 109.149 485.348 93.6901C485.348 78.2311 472.689 65.6992 457.073 65.6992C441.457 65.6992 428.798 78.2311 428.798 93.6901C428.798 109.149 441.457 121.681 457.073 121.681Z" fill="#FFCF84"/>
<path fill-rule="evenodd" clip-rule="evenodd" d="M457.075 71.858C469.247 71.858 479.13 81.641 479.13 93.6909C479.13 105.741 469.247 115.524 457.075 115.524C456.581 115.524 456.179 115.921 456.179 116.411C456.179 116.9 456.581 117.297 457.075 117.297C470.236 117.297 480.921 106.72 480.921 93.6909C480.921 80.6621 470.236 70.0844 457.075 70.0844C456.581 70.0844 456.179 70.4818 456.179 70.9712C456.179 71.4607 456.581 71.858 457.075 71.858Z" fill="#FD9909"/>
<path fill-rule="evenodd" clip-rule="evenodd" d="M457.073 115.524C444.9 115.524 435.017 105.741 435.017 93.6909C435.017 81.641 444.9 71.858 457.073 71.858C457.568 71.858 457.969 71.4607 457.969 70.9712C457.969 70.4818 457.568 70.0844 457.073 70.0844C443.911 70.0844 433.227 80.6621 433.227 93.6909C433.227 106.72 443.911 117.297 457.073 117.297C457.568 117.297 457.969 116.9 457.969 116.411C457.969 115.921 457.568 115.524 457.073 115.524Z" fill="#FD9909"/>
<path fill-rule="evenodd" clip-rule="evenodd" d="M460.475 121.481L459.896 116.869C459.835 116.383 460.185 115.94 460.676 115.88C461.167 115.819 461.613 116.165 461.675 116.65L462.247 121.213C461.663 121.32 461.072 121.41 460.475 121.481ZM465.762 120.332L464.16 115.653C464.003 115.189 464.254 114.685 464.723 114.529C465.191 114.371 465.699 114.62 465.857 115.084L467.45 119.733C466.896 119.95 466.334 120.15 465.762 120.332ZM441.484 117.043L443.974 112.989C444.231 112.57 444.782 112.437 445.205 112.692C445.628 112.946 445.762 113.492 445.506 113.91L443.009 117.975C442.489 117.68 441.98 117.368 441.484 117.043ZM480.335 109.595L476.22 106.58C475.824 106.289 475.74 105.734 476.033 105.34C476.327 104.947 476.888 104.864 477.286 105.155L481.31 108.103C481.002 108.611 480.675 109.109 480.335 109.595ZM430.199 102.415L435.034 100.261C435.484 100.06 436.016 100.26 436.219 100.706C436.421 101.152 436.22 101.677 435.769 101.878L430.813 104.087C430.591 103.538 430.385 102.981 430.199 102.415ZM484.508 86.9018C484.651 87.4732 484.778 88.0514 484.886 88.6358L480.118 89.7487C479.638 89.8612 479.154 89.5655 479.042 89.0893C478.927 88.6129 479.226 88.1349 479.706 88.0225L484.508 86.9018ZM433.707 77.9288L437.967 80.6875C438.381 80.9555 438.497 81.5055 438.227 81.9152C437.956 82.3247 437.401 82.4398 436.987 82.1718L432.745 79.4243C433.049 78.915 433.372 78.4162 433.707 77.9288ZM436.487 74.5073L439.952 77.0296C440.35 77.3196 440.436 77.8753 440.142 78.2694C439.85 78.6636 439.288 78.7482 438.89 78.4583L435.298 75.8415C435.679 75.3845 436.077 74.9395 436.487 74.5073ZM473.414 70.8528C473.901 71.1954 474.378 71.5528 474.842 71.9251L471.744 75.7913C471.436 76.1748 470.872 76.239 470.485 75.9348C470.098 75.6306 470.033 75.0723 470.34 74.6889L473.414 70.8528ZM468.616 68.1357C469.163 68.3785 469.7 68.6381 470.227 68.9128L468.043 72.9681C467.81 73.4 467.267 73.5635 466.83 73.3333C466.395 73.1029 466.23 72.5654 466.463 72.1335L468.616 68.1357ZM450.731 66.408L451.992 70.8597C452.124 71.3309 451.847 71.8208 451.37 71.9529C450.894 72.0852 450.399 71.81 450.267 71.3386L448.998 66.8597C449.568 66.6916 450.145 66.5408 450.731 66.408Z" fill="#FD9909"/>
<path fill-rule="evenodd" clip-rule="evenodd" d="M356.232 59.5917V55.1767C356.232 54.4463 356.825 53.8535 357.555 53.8535C358.286 53.8535 358.878 54.4463 358.878 55.1767V59.5917H363.292C364.023 59.5917 364.616 60.1845 364.616 60.9149C364.616 61.645 364.023 62.2381 363.292 62.2381H358.878V66.6531C358.878 67.3833 358.286 67.9763 357.555 67.9763C356.825 67.9763 356.232 67.3833 356.232 66.6531V62.2381H351.815C351.085 62.2381 350.492 61.645 350.492 60.9149C350.492 60.1845 351.085 59.5917 351.815 59.5917H356.232Z" fill="#FD9500"/>
<path fill-rule="evenodd" clip-rule="evenodd" d="M140.389 109.675V105.26C140.389 104.529 140.982 103.936 141.712 103.936C142.442 103.936 143.035 104.529 143.035 105.26V109.675H147.449C148.18 109.675 148.773 110.267 148.773 110.998C148.773 111.728 148.18 112.321 147.449 112.321H143.035V116.736C143.035 117.466 142.442 118.059 141.712 118.059C140.982 118.059 140.389 117.466 140.389 116.736V112.321H135.972C135.241 112.321 134.649 111.728 134.649 110.998C134.649 110.267 135.241 109.675 135.972 109.675H140.389Z" fill="#FD9500"/>
<path fill-rule="evenodd" clip-rule="evenodd" d="M442.646 154.942V150.527C442.646 149.797 443.239 149.204 443.97 149.204C444.7 149.204 445.293 149.797 445.293 150.527V154.942H449.707C450.437 154.942 451.03 155.535 451.03 156.265C451.03 156.996 450.437 157.589 449.707 157.589H445.293V162.004C445.293 162.734 444.7 163.327 443.97 163.327C443.239 163.327 442.646 162.734 442.646 162.004V157.589H438.229C437.499 157.589 436.906 156.996 436.906 156.265C436.906 155.535 437.499 154.942 438.229 154.942H442.646Z" fill="#FD9500"/>
</svg>
